<svg width="678" height="93" viewBox="0 0 678 93" fill="none" xmlns="http://www.w3.org/2000/svg">
<path d="M0.375 87.6875V67.6875C4 70.7292 7.9375 73.0208 12.1875 74.5625C16.4375 76.0625 20.7292 76.8125 25.0625 76.8125C27.6042 76.8125 29.8125 76.5833 31.6875 76.125C33.6042 75.6667 35.1875 75.0417 36.4375 74.25C37.7292 73.4167 38.6875 72.4583 39.3125 71.375C39.9375 70.25 40.25 69.0417 40.25 67.75C40.25 66 39.75 64.4375 38.75 63.0625C37.75 61.6875 36.375 60.4167 34.625 59.25C32.9167 58.0833 30.875 56.9583 28.5 55.875C26.125 54.7917 23.5625 53.6875 20.8125 52.5625C13.8125 49.6458 8.58333 46.0833 5.125 41.875C1.70833 37.6667 0 32.5833 0 26.625C0 21.9583 0.9375 17.9583 2.8125 14.625C4.6875 11.25 7.22917 8.47917 10.4375 6.3125C13.6875 4.14583 17.4375 2.5625 21.6875 1.5625C25.9375 0.520833 30.4375 0 35.1875 0C39.8542 0 43.9792 0.291667 47.5625 0.875C51.1875 1.41667 54.5208 2.27083 57.5625 3.4375V22.125C56.0625 21.0833 54.4167 20.1667 52.625 19.375C50.875 18.5833 49.0625 17.9375 47.1875 17.4375C45.3125 16.8958 43.4375 16.5 41.5625 16.25C39.7292 16 37.9792 15.875 36.3125 15.875C34.0208 15.875 31.9375 16.1042 30.0625 16.5625C28.1875 16.9792 26.6042 17.5833 25.3125 18.375C24.0208 19.1667 23.0208 20.125 22.3125 21.25C21.6042 22.3333 21.25 23.5625 21.25 24.9375C21.25 26.4375 21.6458 27.7917 22.4375 29C23.2292 30.1667 24.3542 31.2917 25.8125 32.375C27.2708 33.4167 29.0417 34.4583 31.125 35.5C33.2083 36.5 35.5625 37.5417 38.1875 38.625C41.7708 40.125 44.9792 41.7292 47.8125 43.4375C50.6875 45.1042 53.1458 47 55.1875 49.125C57.2292 51.25 58.7917 53.6875 59.875 56.4375C60.9583 59.1458 61.5 62.3125 61.5 65.9375C61.5 70.9375 60.5417 75.1458 58.625 78.5625C56.75 81.9375 54.1875 84.6875 50.9375 86.8125C47.6875 88.8958 43.8958 90.3958 39.5625 91.3125C35.2708 92.2292 30.7292 92.6875 25.9375 92.6875C21.0208 92.6875 16.3333 92.2708 11.875 91.4375C7.45833 90.6042 3.625 89.3542 0.375 87.6875ZM139.188 17.9375H113.625V91.125H93.375V17.9375H67.9375V1.5H139.188V17.9375ZM205 91.125H151.25V1.5H202.938V17.9375H171.438V37.875H200.75V54.25H171.438V74.75H205V91.125ZM239.562 60.25V91.125H219.375V1.5H251C273.583 1.5 284.875 11.0208 284.875 30.0625C284.875 39.0625 281.625 46.3542 275.125 51.9375C268.667 57.4792 260.021 60.25 249.188 60.25H239.562ZM239.562 17V44.9375H247.5C258.25 44.9375 263.625 40.2292 263.625 30.8125C263.625 21.6042 258.25 17 247.5 17H239.562ZM347.188 14.125H313.688V41.0625H344.562V53.625H313.688V91.125H298.812V1.5H347.188V14.125ZM400.125 92.625C387.208 92.625 376.854 88.4375 369.062 80.0625C361.312 71.6875 357.438 60.7917 357.438 47.375C357.438 32.9583 361.396 21.4583 369.312 12.875C377.229 4.29167 387.979 0 401.562 0C414.146 0 424.271 4.16667 431.938 12.5C439.646 20.8333 443.5 31.7292 443.5 45.1875C443.5 59.8125 439.562 71.375 431.688 79.875C423.812 88.375 413.292 92.625 400.125 92.625ZM400.812 13.0625C392.604 13.0625 385.917 16.125 380.75 22.25C375.625 28.375 373.062 36.4375 373.062 46.4375C373.062 56.3958 375.562 64.4167 380.562 70.5C385.562 76.5833 392.104 79.625 400.188 79.625C408.771 79.625 415.542 76.7292 420.5 70.9375C425.458 65.1458 427.938 57.0417 427.938 46.625C427.938 35.9167 425.521 27.6458 420.688 21.8125C415.896 15.9792 409.271 13.0625 400.812 13.0625ZM529.188 91.125H511.812L497.5 67.125C496.208 64.9167 494.938 63.0417 493.688 61.5C492.479 59.9167 491.229 58.625 489.938 57.625C488.688 56.625 487.312 55.8958 485.812 55.4375C484.312 54.9792 482.625 54.75 480.75 54.75H474.75V91.125H459.938V1.5H489.438C493.646 1.5 497.521 2 501.062 3C504.604 4 507.688 5.52083 510.312 7.5625C512.938 9.5625 514.979 12.0833 516.438 15.125C517.938 18.125 518.688 21.6458 518.688 25.6875C518.688 28.8542 518.208 31.7708 517.25 34.4375C516.333 37.0625 515 39.4167 513.25 41.5C511.542 43.5417 509.458 45.2917 507 46.75C504.583 48.2083 501.854 49.3333 498.812 50.125V50.375C500.438 51.2917 501.854 52.3125 503.062 53.4375C504.271 54.5208 505.417 55.6458 506.5 56.8125C507.583 57.9792 508.646 59.3125 509.688 60.8125C510.771 62.2708 511.958 63.9792 513.25 65.9375L529.188 91.125ZM474.75 13.5625V42.6875H487.125C489.417 42.6875 491.521 42.3333 493.438 41.625C495.396 40.9167 497.083 39.8958 498.5 38.5625C499.917 37.2292 501.021 35.6042 501.812 33.6875C502.604 31.7708 503 29.625 503 27.25C503 22.9583 501.646 19.6042 498.938 17.1875C496.229 14.7708 492.333 13.5625 487.25 13.5625H474.75ZM608 85C598.667 90.0833 588.271 92.625 576.812 92.625C563.562 92.625 552.833 88.5 544.625 80.25C536.417 72 532.312 61.0833 532.312 47.5C532.312 33.625 536.792 22.25 545.75 13.375C554.75 4.45833 566.167 0 580 0C589.958 0 598.333 1.45833 605.125 4.375V19.6875C598.25 15.1042 590.062 12.8125 580.562 12.8125C571.021 12.8125 563.188 15.9583 557.062 22.25C550.979 28.5417 547.938 36.6875 547.938 46.6875C547.938 56.9792 550.562 65.0833 555.812 71C561.062 76.875 568.188 79.8125 577.188 79.8125C583.354 79.8125 588.688 78.625 593.188 76.25V54.9375H574.312V42.4375H608V85ZM677.625 91.125H627.312V1.5H675.625V14.125H642.188V39.5H673V52.0625H642.188V78.5625H677.625V91.125Z" fill="white"/>
</svg>
